<svg width="57" height="47" viewBox="0 0 57 47" fill="none" xmlns="http://www.w3.org/2000/svg">
<g clip-path="url(#clip0_62_2784)">
<path d="M28.5656 0.666992C13.5506 0.666992 1.78713 19.527 0.674133 35.4564C5.38601 43.5297 16.7485 46.5644 28.5661 46.5644C40.3827 46.5644 51.7459 43.5297 56.4554 35.4562C55.3422 19.527 43.5802 0.666992 28.5658 0.666992" fill="#B6DEFF"/>
<path d="M52.5319 31.6621C52.5319 31.6621 49.2157 24.5837 45.845 20.4541C42.4718 16.3227 38.3526 11.8242 35.917 11.8242C33.4828 11.8242 26.6779 23.719 23.5561 23.719C20.4337 23.719 18.811 18.3268 14.9721 18.3268C11.1318 18.3268 5.03038 31.3297 5.03038 31.3297L4.61694 33.5341C4.61694 33.5341 6.73663 42.812 28.9122 42.812C51.0886 42.812 52.8609 33.6863 52.8609 33.6863L52.5322 31.6619" fill="#66CC66"/>
<path d="M23.9037 28.7949C20.4597 28.7949 18.6942 25.4402 17.7369 23.3693C16.8762 21.5038 16.7272 18.5585 14.2849 18.476C14.5248 18.3821 14.7558 18.3266 14.9724 18.3266C18.8112 18.3266 20.4339 23.7187 23.5564 23.7187C26.6781 23.7187 33.483 11.8237 35.9173 11.8237C36.376 11.8237 36.8927 11.9835 37.4533 12.2677C37.0386 12.2138 36.5068 12.2513 36.0971 12.6571C35.3102 13.4342 28.1674 28.7949 23.9037 28.7949Z" fill="#17AD49"/>
</g>
<defs>
<clipPath id="clip0_62_2784">
<rect width="56" height="46" fill="white" transform="translate(0.5 0.666992)"/>
</clipPath>
</defs>
</svg>
