<svg width="48" height="52" viewBox="0 0 48 52" fill="none" xmlns="http://www.w3.org/2000/svg">
<g clip-path="url(#clip0_62_2788)">
<path d="M44.2025 41.3962C43.8482 44.0468 42.076 46.3403 39.5949 47.3595C38.3795 47.8686 37.0631 48.022 35.7464 47.8686C34.4807 47.716 33.2146 47.3082 31.8983 46.5445C30.0752 45.5241 28.2523 43.9449 26.1257 41.6004C29.4678 37.4724 31.4927 33.701 32.2526 30.3379C32.6071 28.7578 32.6576 27.3308 32.506 26.0055C32.3036 24.7316 31.8478 23.559 31.1385 22.5399C29.5688 20.2468 26.9361 18.9215 23.9991 18.9215C21.0622 18.9215 18.4293 20.2978 16.8595 22.5399C16.1503 23.5592 15.6952 24.7316 15.4923 26.0055C15.29 27.3308 15.3405 28.8087 15.7457 30.3381C16.505 33.7008 18.5809 37.5234 21.8726 41.6507C19.7965 43.9958 17.9229 45.5755 16.0998 46.5949C14.7835 47.3595 13.5174 47.7674 12.2517 47.9196C10.9469 48.0663 9.62623 47.8916 8.4034 47.4105C5.92213 46.3913 4.15027 44.097 3.79557 41.4471C3.64392 40.1733 3.74508 38.8995 4.25143 37.4724C4.40308 36.9624 4.65662 36.4537 4.90943 35.8417C5.26413 35.0266 5.66932 34.1596 6.07396 33.293L6.125 33.1917C9.61843 25.5977 13.3658 17.8514 17.2647 10.3092L17.4166 10.0028C17.8218 9.23908 18.2264 8.424 18.632 7.65919C19.0368 6.84356 19.4925 6.07893 20.0493 5.41593C21.1127 4.19267 22.5306 3.53022 24.1003 3.53022C25.67 3.53022 27.0877 4.19267 28.1511 5.41611C28.7081 6.07893 29.1638 6.84356 29.569 7.65937C29.9742 8.424 30.3788 9.23908 30.784 10.0028L30.9364 10.3092C34.7844 17.9022 38.5317 25.6485 42.0255 33.2425V33.293C42.4307 34.1086 42.7848 35.0266 43.19 35.8417C43.4434 36.4537 43.6964 36.9622 43.848 37.4724C44.2532 38.7973 44.405 40.0719 44.2027 41.3962H44.2025ZM23.9991 39.0007C21.2651 35.5357 19.4925 32.2737 18.885 29.5225C18.6321 28.35 18.5809 27.3308 18.7333 26.4133C18.8343 25.5977 19.1385 24.8839 19.543 24.2719C20.5052 22.8971 22.1254 22.0292 23.9991 22.0292C25.8727 22.0292 27.5436 22.8454 28.455 24.2719C28.8598 24.8839 29.1638 25.5977 29.265 26.4133C29.4168 27.3308 29.3661 28.4009 29.1131 29.5225C28.5056 32.2233 26.7332 35.4849 23.9991 39.0007ZM46.8356 36.3509C46.5826 35.7393 46.3293 35.077 46.0763 34.5164C45.6711 33.5995 45.2659 32.7325 44.9114 31.9169L44.8607 31.8664C41.3673 24.2214 37.62 16.4752 33.6703 8.83182L33.5187 8.52508C33.1135 7.76063 32.7083 6.945 32.3036 6.12974C31.7969 5.21193 31.2904 4.24459 30.4805 3.32659C28.8596 1.28807 26.5309 0.166992 24.0494 0.166992C21.5177 0.166992 19.2393 1.28807 17.568 3.22514C16.8089 4.14222 16.2519 5.11048 15.7455 6.02848C15.3403 6.84356 14.9351 7.65919 14.5301 8.424L14.3783 8.72889C10.4797 16.3734 6.68184 24.1202 3.18787 31.7646L3.13738 31.8664C2.78268 32.6815 2.37749 33.5476 1.9723 34.4656C1.70141 35.0696 1.44825 35.6815 1.21314 36.3005C0.554586 38.1856 0.352266 39.9697 0.605258 41.8041C1.16265 45.6265 3.69441 48.8376 7.1882 50.2641C8.50438 50.8251 9.8716 51.0798 11.2897 51.0798C11.6947 51.0798 12.201 51.0288 12.6062 50.9774C14.2769 50.7732 15.9985 50.2137 17.6692 49.2449C19.7456 48.0728 21.7206 46.3913 23.9483 43.9449C26.176 46.3913 28.2016 48.073 30.227 49.2449C31.8983 50.2137 33.6196 50.7732 35.2905 50.9774C35.6957 51.0288 36.2021 51.0798 36.6071 51.0798C38.025 51.0798 39.4425 50.8251 40.7086 50.2641C44.253 48.8376 46.7341 45.5757 47.2911 41.8041C47.6963 40.02 47.4934 38.2372 46.8354 36.3507L46.8356 36.3509Z" fill="#E0565B"/>
</g>
<defs>
<clipPath id="clip0_62_2788">
<rect width="47" height="51" fill="white" transform="translate(0.5 0.166992)"/>
</clipPath>
</defs>
</svg>
