<svg width="84" height="34" viewBox="0 0 84 34" fill="none" xmlns="http://www.w3.org/2000/svg">
<g clip-path="url(#clip0_62_2790)">
<path d="M0.5 0.166992V2.42258H16.6558V0.166992H0.5ZM18.9448 0.166992V2.42258H41.9676C41.9676 2.42258 39.6159 0.166992 36.5013 0.166992H18.9448ZM46.4839 0.166992V2.42258H60.4124L59.5856 0.166992H46.4839ZM70.3983 0.166992L69.5716 2.42258H83.3736V0.166992H70.3983ZM0.5 4.55358V6.80917H16.6558V4.55358H0.5ZM18.9448 4.5568V6.80917H44.6391C44.6391 6.80917 44.3391 5.07321 43.8156 4.5568H18.9448ZM46.4839 4.5568V6.80917H61.9395L61.1743 4.5568H46.4839ZM68.7448 4.5568L67.9797 6.80917H83.3736V4.5568H68.7448ZM5.14281 8.94016V11.1987H12.1395V8.94016H5.14281ZM23.5876 8.94016V11.1987H30.5843V8.94016H23.5876ZM37.3896 8.94016V11.1987H44.3862C44.3862 11.1987 44.8304 10.0058 44.8304 8.94H37.3896V8.94016ZM51.1268 8.94016V11.1987H63.5314L62.7046 8.94H51.1268V8.94016ZM67.221 8.94016L66.391 11.1988H78.8572V8.94016H67.221ZM5.14281 13.33V15.5852H12.1395V13.33H5.14281ZM23.5876 13.33V15.5852H41.4586C41.4586 15.5852 42.9535 14.4278 43.4298 13.3296H23.5876V13.33ZM51.1268 13.33V15.5852H58.1234V14.3296L58.5676 15.5852H71.3839L71.8605 14.3296V15.5852H78.8572V13.33H65.7231L65.026 15.2406L64.3257 13.33H51.1268ZM5.14281 17.7162V19.9718H12.1395V17.7162H5.14281ZM23.5876 17.7162V19.9718H43.4298C42.9534 18.8772 41.4586 17.7162 41.4586 17.7162H23.5876ZM51.1268 17.7162V19.9718H58.1234V17.7162H51.1268ZM59.3943 17.7162L60.2405 19.9718H69.8504L70.6545 17.7162H59.3943ZM71.8605 17.7162V19.9718H78.8572V17.7162H71.8605ZM5.14281 22.1028V24.3584H12.1395V22.1028H5.14281ZM23.5876 22.1028V24.3584H30.5843V22.1028H23.5876ZM37.3896 22.1028V24.3584H44.8304C44.8304 23.2939 44.3862 22.1028 44.3862 22.1028H37.3896ZM51.1268 22.1028V24.3584H58.1234V22.1028H51.1268ZM60.983 22.1028L61.8033 24.3584H68.2455L69.0723 22.1028H60.983ZM71.8605 22.1028V24.3584H78.8572V22.1028H71.8605ZM0.626445 26.4896V28.7482H16.7823V26.4894H0.626445V26.4896ZM18.9448 26.4896V28.7482H43.8156C44.3391 28.231 44.6391 26.4894 44.6391 26.4894H18.9448V26.4896ZM46.6104 26.4896V28.7482H58.1234V26.4894H46.6104V26.4896ZM62.5749 26.4896L63.4179 28.7482H66.6957L67.4868 26.4894H62.5749V26.4896ZM71.8605 26.4896V28.7482H83.5V26.4894H71.8605V26.4896ZM0.626445 30.8792V33.1348H16.7823V30.8792H0.626445ZM18.9448 30.8792V33.1314H36.5013C39.6159 33.1314 41.9676 30.879 41.9676 30.879H18.9448V30.8792ZM46.6104 30.8792V33.1348H58.1234V30.8792H46.6104ZM64.1733 30.8792L64.9839 33.1282L65.1233 33.1314L65.9468 30.879H64.1733V30.8792ZM71.8605 30.8792V33.1348H83.5V30.8792H71.8605Z" fill="#1F70C1"/>
</g>
<defs>
<clipPath id="clip0_62_2790">
<rect width="83" height="33" fill="white" transform="translate(0.5 0.166992)"/>
</clipPath>
</defs>
</svg>
